<?xml version="1.0" encoding="UTF-8" standalone="no"?>
<!DOCTYPE svg PUBLIC "-//W3C//DTD SVG 1.1//EN" "http://www.w3.org/Graphics/SVG/1.1/DTD/svg11.dtd">
<svg width="100%" height="100%" viewBox="0 0 782 112" version="1.1" xmlns="http://www.w3.org/2000/svg" xmlns:xlink="http://www.w3.org/1999/xlink" xml:space="preserve" xmlns:serif="http://www.serif.com/" style="fill-rule:evenodd;clip-rule:evenodd;stroke-linejoin:round;stroke-miterlimit:2;">
    <rect id="Artboard1" x="0" y="0" width="781.886" height="111.164" style="fill:none;"/>
    <g id="Artboard11" serif:id="Artboard1">
        <g transform="matrix(1,0,0,1,-65.6712,25.1201)">
            <g transform="matrix(144,0,0,144,62.6972,84.5674)">
                <path d="M0.256,-0L0.091,-0.623L0.021,-0.63L0.021,-0.711L0.295,-0.711L0.295,-0.63L0.219,-0.619L0.304,-0.263L0.321,-0.194L0.324,-0.194L0.344,-0.263L0.485,-0.711L0.586,-0.711L0.731,-0.254L0.751,-0.189L0.754,-0.189L0.771,-0.254L0.858,-0.619L0.778,-0.63L0.778,-0.711L1.047,-0.711L1.047,-0.63L0.981,-0.623L0.816,-0L0.695,-0L0.556,-0.432L0.539,-0.493L0.536,-0.493L0.517,-0.43L0.377,-0L0.256,-0Z" style="fill-rule:nonzero;"/>
            </g>
            <g transform="matrix(144,0,0,144,207.471,84.5674)">
                <path d="M0.281,0.01C0.23,0.01 0.185,-0.001 0.148,-0.024C0.112,-0.047 0.083,-0.078 0.063,-0.119C0.044,-0.159 0.034,-0.206 0.034,-0.259L0.034,-0.269C0.034,-0.321 0.044,-0.368 0.063,-0.408C0.083,-0.449 0.111,-0.481 0.148,-0.504C0.185,-0.527 0.229,-0.538 0.28,-0.538C0.332,-0.538 0.376,-0.527 0.413,-0.504C0.449,-0.481 0.478,-0.449 0.497,-0.409C0.517,-0.368 0.527,-0.322 0.527,-0.269L0.527,-0.259C0.527,-0.206 0.517,-0.159 0.497,-0.119C0.478,-0.078 0.449,-0.047 0.413,-0.024C0.376,-0.001 0.332,0.01 0.281,0.01ZM0.281,-0.092C0.307,-0.092 0.328,-0.099 0.345,-0.113C0.362,-0.127 0.374,-0.147 0.382,-0.172C0.39,-0.197 0.395,-0.226 0.395,-0.259L0.395,-0.269C0.395,-0.302 0.39,-0.33 0.382,-0.355C0.374,-0.38 0.362,-0.4 0.345,-0.414C0.328,-0.428 0.306,-0.436 0.28,-0.436C0.254,-0.436 0.233,-0.428 0.216,-0.414C0.199,-0.4 0.187,-0.38 0.179,-0.355C0.171,-0.33 0.167,-0.302 0.167,-0.269L0.167,-0.259C0.167,-0.226 0.171,-0.197 0.179,-0.171C0.187,-0.146 0.199,-0.127 0.216,-0.113C0.233,-0.099 0.255,-0.092 0.281,-0.092Z" style="fill-rule:nonzero;"/>
            </g>
            <g transform="matrix(144,0,0,144,286.502,84.5674)">
                <path d="M0.04,-0L0.04,-0.08L0.111,-0.095L0.111,-0.433L0.034,-0.448L0.034,-0.528L0.234,-0.528L0.24,-0.462L0.241,-0.451C0.254,-0.48 0.271,-0.501 0.291,-0.516C0.31,-0.531 0.334,-0.538 0.361,-0.538C0.37,-0.538 0.379,-0.537 0.389,-0.536C0.399,-0.534 0.408,-0.533 0.415,-0.53L0.401,-0.408L0.331,-0.412C0.309,-0.413 0.292,-0.409 0.278,-0.4C0.265,-0.391 0.253,-0.378 0.244,-0.362L0.244,-0.095L0.315,-0.08L0.315,-0L0.04,-0Z" style="fill-rule:nonzero;"/>
            </g>
            <g transform="matrix(144,0,0,144,345.213,84.5674)">
                <path d="M0.236,0.01C0.194,0.01 0.158,-0.001 0.127,-0.022C0.097,-0.044 0.074,-0.074 0.058,-0.113C0.042,-0.151 0.034,-0.197 0.034,-0.248L0.034,-0.259C0.034,-0.315 0.042,-0.363 0.058,-0.405C0.074,-0.447 0.097,-0.48 0.127,-0.503C0.158,-0.526 0.194,-0.538 0.236,-0.538C0.265,-0.538 0.291,-0.532 0.313,-0.521C0.336,-0.509 0.355,-0.493 0.371,-0.471L0.371,-0.666L0.294,-0.681L0.294,-0.762L0.504,-0.762L0.504,-0.095L0.574,-0.08L0.574,-0L0.389,-0L0.378,-0.064C0.362,-0.04 0.342,-0.021 0.318,-0.009C0.295,0.004 0.267,0.01 0.236,0.01ZM0.274,-0.094C0.296,-0.094 0.315,-0.098 0.331,-0.108C0.347,-0.117 0.36,-0.131 0.371,-0.148L0.371,-0.377C0.361,-0.395 0.347,-0.409 0.331,-0.419C0.315,-0.429 0.297,-0.434 0.275,-0.434C0.25,-0.434 0.23,-0.427 0.214,-0.412C0.198,-0.397 0.186,-0.377 0.178,-0.35C0.17,-0.324 0.167,-0.294 0.167,-0.259L0.167,-0.248C0.167,-0.201 0.175,-0.163 0.192,-0.135C0.209,-0.108 0.236,-0.094 0.274,-0.094Z" style="fill-rule:nonzero;"/>
            </g>
            <g transform="matrix(144,0,0,144,430.853,84.5674)">
                <path d="M0.025,-0L0.025,-0.08L0.096,-0.095L0.096,-0.666L0.019,-0.681L0.019,-0.762L0.229,-0.762L0.229,-0.095L0.3,-0.08L0.3,-0L0.025,-0Z" style="fill-rule:nonzero;"/>
            </g>
            <g transform="matrix(144,0,0,144,475.361,84.5674)">
                <path d="M0.282,0.01C0.232,0.01 0.188,-0.001 0.151,-0.023C0.114,-0.045 0.085,-0.076 0.064,-0.115C0.044,-0.155 0.034,-0.2 0.034,-0.25L0.034,-0.27C0.034,-0.322 0.043,-0.368 0.063,-0.408C0.083,-0.449 0.111,-0.48 0.146,-0.503C0.181,-0.527 0.222,-0.538 0.269,-0.538C0.317,-0.538 0.357,-0.529 0.389,-0.51C0.422,-0.491 0.447,-0.463 0.463,-0.428C0.48,-0.392 0.489,-0.35 0.489,-0.3L0.489,-0.226L0.171,-0.226L0.17,-0.223C0.172,-0.198 0.178,-0.175 0.188,-0.155C0.197,-0.136 0.212,-0.12 0.23,-0.109C0.248,-0.097 0.27,-0.092 0.297,-0.092C0.324,-0.092 0.349,-0.095 0.372,-0.103C0.395,-0.11 0.417,-0.12 0.438,-0.134L0.476,-0.052C0.455,-0.034 0.428,-0.019 0.395,-0.007C0.363,0.004 0.325,0.01 0.282,0.01ZM0.173,-0.316L0.363,-0.316L0.363,-0.329C0.363,-0.351 0.36,-0.37 0.353,-0.387C0.347,-0.403 0.337,-0.416 0.324,-0.425C0.31,-0.434 0.292,-0.439 0.271,-0.439C0.252,-0.439 0.235,-0.434 0.221,-0.423C0.207,-0.413 0.196,-0.398 0.188,-0.38C0.179,-0.362 0.174,-0.342 0.171,-0.319L0.173,-0.316Z" style="fill-rule:nonzero;"/>
            </g>
            <g transform="matrix(144,0,0,144,585.611,84.5674)">
                <path d="M0.312,-0L0.082,-0.622L0.02,-0.63L0.02,-0.711L0.29,-0.711L0.29,-0.63L0.226,-0.62L0.37,-0.194L0.382,-0.151L0.385,-0.151L0.397,-0.193L0.542,-0.62L0.467,-0.63L0.467,-0.711L0.727,-0.711L0.727,-0.63L0.664,-0.622L0.445,-0L0.312,-0Z" style="fill-rule:nonzero;"/>
            </g>
            <g transform="matrix(144,0,0,144,689.674,84.5674)">
                <path d="M0.258,0.01C0.202,0.01 0.158,-0.008 0.126,-0.043C0.094,-0.079 0.078,-0.134 0.078,-0.209L0.078,-0.433L0.02,-0.448L0.02,-0.528L0.211,-0.528L0.211,-0.208C0.211,-0.167 0.218,-0.137 0.232,-0.12C0.246,-0.103 0.267,-0.094 0.296,-0.094C0.319,-0.094 0.34,-0.098 0.357,-0.108C0.375,-0.117 0.389,-0.131 0.4,-0.148L0.4,-0.433L0.335,-0.448L0.335,-0.528L0.533,-0.528L0.533,-0.095L0.596,-0.08L0.596,-0L0.416,-0L0.407,-0.069C0.39,-0.044 0.369,-0.024 0.344,-0.01C0.319,0.003 0.29,0.01 0.258,0.01Z" style="fill-rule:nonzero;"/>
            </g>
            <g transform="matrix(144,0,0,144,777.213,84.5674)">
                <path d="M0.282,0.01C0.232,0.01 0.188,-0.001 0.151,-0.023C0.114,-0.045 0.085,-0.076 0.064,-0.115C0.044,-0.155 0.034,-0.2 0.034,-0.25L0.034,-0.27C0.034,-0.322 0.043,-0.368 0.063,-0.408C0.083,-0.449 0.111,-0.48 0.146,-0.503C0.181,-0.527 0.222,-0.538 0.269,-0.538C0.317,-0.538 0.357,-0.529 0.389,-0.51C0.422,-0.491 0.447,-0.463 0.463,-0.428C0.48,-0.392 0.489,-0.35 0.489,-0.3L0.489,-0.226L0.171,-0.226L0.17,-0.223C0.172,-0.198 0.178,-0.175 0.188,-0.155C0.197,-0.136 0.212,-0.12 0.23,-0.109C0.248,-0.097 0.27,-0.092 0.297,-0.092C0.324,-0.092 0.349,-0.095 0.372,-0.103C0.395,-0.11 0.417,-0.12 0.438,-0.134L0.476,-0.052C0.455,-0.034 0.428,-0.019 0.395,-0.007C0.363,0.004 0.325,0.01 0.282,0.01ZM0.173,-0.316L0.363,-0.316L0.363,-0.329C0.363,-0.351 0.36,-0.37 0.353,-0.387C0.347,-0.403 0.337,-0.416 0.324,-0.425C0.31,-0.434 0.292,-0.439 0.271,-0.439C0.252,-0.439 0.235,-0.434 0.221,-0.423C0.207,-0.413 0.196,-0.398 0.188,-0.38C0.179,-0.362 0.174,-0.342 0.171,-0.319L0.173,-0.316Z" style="fill-rule:nonzero;"/>
            </g>
        </g>
    </g>
</svg>
